<svg width="187" height="59" viewBox="0 0 187 59" fill="none" xmlns="http://www.w3.org/2000/svg">
<path d="M29.3286 54.3175H44.7213V59H24.6484V0H29.3286V54.3175Z" fill="#3B1D8F"/>
<path d="M4.6802 0H0V59H4.6802V0Z" fill="#3B1D8F"/>
<path d="M53.042 29.552C53.042 43.1834 64.1705 54.3175 77.7951 54.3175V59C61.4664 59 48.2578 45.7848 48.2578 29.552C48.3618 13.2152 61.5704 0 77.8991 0V4.68254C64.1705 4.68254 53.042 15.8166 53.042 29.552Z" fill="#3B1D8F"/>
<path d="M81.2266 29.447C81.2266 31.32 79.7705 32.7768 77.8985 32.7768C76.0264 32.7768 74.5703 31.32 74.5703 29.447C74.5703 27.574 76.0264 26.1172 77.8985 26.1172C79.6665 26.1172 81.2266 27.678 81.2266 29.447Z" fill="#3B1D8F"/>
</svg>
