<svg width="53" height="40" viewBox="0 0 53 40" fill="none" xmlns="http://www.w3.org/2000/svg">
<path d="M20.0889 0.200195C31.0739 0.200251 39.9775 9.06563 39.9775 20C39.9775 30.9344 31.0739 39.7997 20.0889 39.7998C9.10377 39.7998 0.200195 30.9344 0.200195 20C0.200195 9.0656 9.10377 0.200195 20.0889 0.200195Z" fill="#F4F7FA" stroke="black" stroke-width="0.4"/>
<path d="M20.0908 3.60254C29.1874 3.60254 36.5605 10.9438 36.5605 19.998C36.5605 29.0523 29.1875 36.3936 20.0908 36.3936C10.9944 36.3933 3.62207 29.0522 3.62207 19.998C3.62209 10.9439 10.9944 3.60278 20.0908 3.60254Z" stroke="black" stroke-opacity="0.3" stroke-width="0.4"/>
<path d="M32.9092 0.200195C43.8942 0.200251 52.7979 9.06563 52.7979 20C52.7979 30.9344 43.8942 39.7997 32.9092 39.7998C21.9241 39.7998 13.0205 30.9344 13.0205 20C13.0205 9.0656 21.9241 0.200195 32.9092 0.200195Z" fill="#F4F7FA" stroke="black" stroke-width="0.4"/>
<path d="M33.3408 3.60254C42.4374 3.60254 49.8105 10.9438 49.8105 19.998C49.8105 29.0523 42.4375 36.3936 33.3408 36.3936C24.2444 36.3933 16.8721 29.0522 16.8721 19.998C16.8721 10.9439 24.2444 3.60278 33.3408 3.60254Z" stroke="black" stroke-width="0.4"/>
<path d="M32.6481 29.4721V27.2544C30.7012 27.0056 28.9739 26.3103 27.4661 25.1685L29.1788 22.6653C30.4377 23.6168 31.6307 24.2097 32.7579 24.4439V20.9527C31.1184 20.5135 29.918 19.9426 29.1569 19.24C28.4103 18.5227 28.037 17.5273 28.037 16.2538C28.037 15.0534 28.4542 14.0727 29.2886 13.3115C30.123 12.5503 31.2428 12.0965 32.6481 11.9501V10.6766H34.9317V11.994C36.4101 12.1989 37.7715 12.7406 39.0157 13.6189L37.5446 16.1879C36.6077 15.5584 35.7002 15.1266 34.8219 14.8924V18.208C36.5053 18.6618 37.7203 19.2619 38.4668 20.0085C39.2134 20.7404 39.5866 21.7285 39.5866 22.9727C39.5866 24.1731 39.1621 25.1538 38.3131 25.915C37.4787 26.6762 36.3516 27.1373 34.9317 27.2984V29.4721H32.6481ZM32.7579 17.659V14.6948C31.7478 14.8265 31.2428 15.2949 31.2428 16.1001C31.2428 16.4514 31.3453 16.7515 31.5502 17.0003C31.7698 17.2345 32.1723 17.4541 32.7579 17.659ZM34.8219 24.5537C35.8612 24.3927 36.3809 23.9096 36.3809 23.1045C36.3809 22.7239 36.2637 22.4165 36.0295 22.1823C35.81 21.9334 35.4074 21.6992 34.8219 21.4796V24.5537Z" fill="url(#paint0_linear_648_246)"/>
<defs>
<linearGradient id="paint0_linear_648_246" x1="33.3387" y1="15.3203" x2="33.3387" y2="24.682" gradientUnits="userSpaceOnUse">
<stop stop-color="#4614E8"/>
<stop offset="1" stop-color="#BCA7FF"/>
</linearGradient>
</defs>
</svg>
