<svg width="44" height="42" viewBox="0 0 44 42" fill="none" xmlns="http://www.w3.org/2000/svg">
<mask id="path-1-inside-1_649_1829" fill="white">
<path d="M20 2C31.0457 2 40 10.9543 40 22C40 33.0457 31.0457 42 20 42C8.95431 42 0 33.0457 0 22C0 10.9543 8.95431 2 20 2Z"/>
</mask>
<path d="M20 2C31.0457 2 40 10.9543 40 22C40 33.0457 31.0457 42 20 42C8.95431 42 0 33.0457 0 22C0 10.9543 8.95431 2 20 2Z" fill="#F4F7FA"/>
<path d="M40 22L40.4 22L40 22ZM0 22H-0.4H0ZM20 2V2.4C30.8248 2.4 39.6 11.1752 39.6 22L40 22L40.4 22C40.4 10.7334 31.2666 1.6 20 1.6V2ZM40 22H39.6C39.6 32.8248 30.8248 41.6 20 41.6V42V42.4C31.2666 42.4 40.4 33.2666 40.4 22H40ZM20 42V41.6C9.17522 41.6 0.4 32.8248 0.4 22H0H-0.4C-0.4 33.2666 8.73339 42.4 20 42.4V42ZM0 22L0.4 22C0.4 11.1752 9.17522 2.4 20 2.4V2V1.6C8.73339 1.6 -0.4 10.7334 -0.4 22L0 22Z" fill="black" mask="url(#path-1-inside-1_649_1829)"/>
<g clip-path="url(#clip0_649_1829)">
<path d="M20.1602 14.4424C20.6693 14.4426 21.0801 14.8541 21.0801 15.3633V21.627L21.1602 21.6865L25.1953 24.7129C25.5767 24.9987 25.6726 25.5232 25.4316 25.9219L25.3789 26V26.001C25.199 26.2432 24.9235 26.3701 24.6416 26.3701C24.4971 26.3701 24.3522 26.3361 24.2188 26.2666L24.0898 26.1855L19.6074 22.8232L19.5244 22.7539C19.3434 22.582 19.2393 22.3409 19.2393 22.0869V15.3633C19.2393 14.854 19.6509 14.4424 20.1602 14.4424Z" fill="#F4F7FA" stroke="black" stroke-width="0.4"/>
<path d="M20.1631 7.73145C28.0307 7.73145 34.4315 14.1314 34.4316 21.999C34.4316 29.8668 28.0308 36.2676 20.1631 36.2676C12.2955 36.2674 5.89551 29.8667 5.89551 21.999C5.89568 14.1315 12.2956 7.73161 20.1631 7.73145ZM20.1631 9.57227C13.3119 9.57243 7.7365 15.1479 7.73633 21.999C7.73633 28.8503 13.3118 34.4256 20.1631 34.4258C27.0145 34.4258 32.5898 28.8504 32.5898 21.999C32.5897 15.1478 27.0155 9.57227 20.1631 9.57227Z" fill="#F4F7FA" stroke="black" stroke-width="0.4"/>
</g>
<mask id="path-6-inside-2_649_1829" fill="white">
<path d="M29.6494 27.4688C28.6624 27.4688 27.6995 27.3639 26.7715 27.166C31.9953 25.8434 35.9139 20.3331 35.9141 13.7354C35.9141 7.1375 31.9953 1.62735 26.7715 0.304688C27.6995 0.106804 28.6623 0.000976562 29.6494 0.000976562C37.2342 0.00114767 43.3828 6.15054 43.3828 13.7354C43.3826 21.32 37.2341 27.4686 29.6494 27.4688Z"/>
</mask>
<path d="M29.6494 27.4688C28.6624 27.4688 27.6995 27.3639 26.7715 27.166C31.9953 25.8434 35.9139 20.3331 35.9141 13.7354C35.9141 7.1375 31.9953 1.62735 26.7715 0.304688C27.6995 0.106804 28.6623 0.000976562 29.6494 0.000976562C37.2342 0.00114767 43.3828 6.15054 43.3828 13.7354C43.3826 21.32 37.2341 27.4686 29.6494 27.4688Z" fill="#7247FF"/>
<path d="M29.6494 27.4688C28.6624 27.4688 27.6995 27.3639 26.7715 27.166C31.9953 25.8434 35.9139 20.3331 35.9141 13.7354C35.9141 7.1375 31.9953 1.62735 26.7715 0.304688C27.6995 0.106804 28.6623 0.000976562 29.6494 0.000976562C37.2342 0.00114767 43.3828 6.15054 43.3828 13.7354C43.3826 21.32 37.2341 27.4686 29.6494 27.4688Z" fill="url(#paint0_linear_649_1829)"/>
<path d="M29.6494 27.4688L29.6494 27.7688L29.6494 27.7688L29.6494 27.4688ZM26.7715 27.166L26.6979 26.8752L26.7089 27.4594L26.7715 27.166ZM35.9141 13.7354L36.2141 13.7354V13.7354H35.9141ZM26.7715 0.304688L26.7089 0.0112831L26.6978 0.59551L26.7715 0.304688ZM29.6494 0.000976562L29.6494 -0.299023H29.6494V0.000976562ZM43.3828 13.7354L43.6828 13.7354V13.7354H43.3828ZM29.6494 27.4688V27.1687C28.6837 27.1687 27.7418 27.0661 26.834 26.8726L26.7715 27.166L26.7089 27.4594C27.6572 27.6616 28.6411 27.7688 29.6494 27.7688V27.4688ZM26.7715 27.166L26.8451 27.4568C32.2294 26.0936 36.2139 20.4401 36.2141 13.7354L35.9141 13.7354L35.6141 13.7353C35.6139 20.2261 31.7612 25.5932 26.6979 26.8752L26.7715 27.166ZM35.9141 13.7354H36.2141C36.2141 7.03049 32.2294 1.37714 26.8451 0.0138649L26.7715 0.304688L26.6978 0.59551C31.7613 1.87756 35.6141 7.2445 35.6141 13.7354H35.9141ZM26.7715 0.304688L26.834 0.598092C27.742 0.404493 28.6838 0.300977 29.6494 0.300977V0.000976562V-0.299023C28.6408 -0.299023 27.6571 -0.190885 26.7089 0.0112831L26.7715 0.304688ZM29.6494 0.000976562L29.6494 0.300977C37.0685 0.301144 43.0828 6.3162 43.0828 13.7354H43.3828H43.6828C43.6828 5.98487 37.3999 -0.298849 29.6494 -0.299023L29.6494 0.000976562ZM43.3828 13.7354L43.0828 13.7353C43.0826 21.1543 37.0684 27.1686 29.6494 27.1687L29.6494 27.4688L29.6494 27.7688C37.3998 27.7686 43.6826 21.4857 43.6828 13.7354L43.3828 13.7354Z" fill="black" mask="url(#path-6-inside-2_649_1829)"/>
<defs>
<linearGradient id="paint0_linear_649_1829" x1="35.0771" y1="27.4688" x2="35.0771" y2="0.000976562" gradientUnits="userSpaceOnUse">
<stop stop-color="#4614E8"/>
<stop offset="1" stop-color="#BCA7FF"/>
</linearGradient>
<clipPath id="clip0_649_1829">
<rect x="5.69531" y="7.53125" width="28.9362" height="28.9362" fill="white"/>
</clipPath>
</defs>
</svg>
