<svg width="40" height="40" viewBox="0 0 40 40" fill="none" xmlns="http://www.w3.org/2000/svg">
<path d="M9.28906 0.200195C14.3104 0.200195 18.3789 4.23938 18.3789 9.21875C18.3788 14.198 14.3103 18.2373 9.28906 18.2373C4.26792 18.2372 0.200306 14.198 0.200195 9.21875C0.200195 4.23946 4.26785 0.200313 9.28906 0.200195Z" fill="#F1F5F8" stroke="black" stroke-width="0.4"/>
<path d="M9.28906 21.7627C14.3104 21.7627 18.3789 25.8019 18.3789 30.7812C18.3788 35.7605 14.3103 39.7998 9.28906 39.7998C4.26792 39.7997 0.200306 35.7605 0.200195 30.7812C0.200195 25.802 4.26785 21.7628 9.28906 21.7627Z" fill="#F1F5F8" stroke="black" stroke-width="0.4"/>
<path d="M30.7109 0.200195C35.7323 0.200195 39.8008 4.23938 39.8008 9.21875C39.8007 14.198 35.7322 18.2373 30.7109 18.2373C25.6898 18.2372 21.6222 14.198 21.6221 9.21875C21.6221 4.23946 25.6897 0.200313 30.7109 0.200195Z" fill="#F1F5F8" stroke="black" stroke-width="0.4"/>
<ellipse cx="30.7112" cy="30.781" rx="9.28928" ry="9.21855" fill="url(#paint0_linear_648_252)"/>
<path d="M9.26855 5.63672C7.27155 5.63672 5.67188 7.24039 5.67188 9.19434C5.67195 11.1482 7.2716 12.752 9.26855 12.752V15.752C5.63641 15.752 2.67195 12.8267 2.67188 9.19434C2.67188 5.56195 5.63636 2.63672 9.26855 2.63672V5.63672Z" fill="#F1F5F8"/>
<path d="M9.26855 5.63672V5.83672H9.46855V5.63672H9.26855ZM5.67188 9.19434L5.47187 9.19434L5.47187 9.19434L5.67188 9.19434ZM9.26855 12.752H9.46855V12.552H9.26855V12.752ZM9.26855 15.752V15.952H9.46855V15.752H9.26855ZM2.67188 9.19434L2.47187 9.19434L2.47187 9.19434L2.67188 9.19434ZM9.26855 2.63672H9.46855V2.43672H9.26855V2.63672ZM9.26855 5.63672V5.43672C7.16238 5.43672 5.47187 7.12865 5.47187 9.19434H5.67188H5.87188C5.87188 7.35212 7.38073 5.83672 9.26855 5.83672V5.63672ZM5.67188 9.19434L5.47187 9.19434C5.47196 11.2599 7.16242 12.952 9.26855 12.952V12.752V12.552C7.38079 12.552 5.87195 11.0365 5.87188 9.19433L5.67188 9.19434ZM9.26855 12.752H9.06855V15.752H9.26855H9.46855V12.752H9.26855ZM9.26855 15.752V15.552C5.74531 15.552 2.87195 12.7147 2.87188 9.19433L2.67188 9.19434L2.47187 9.19434C2.47196 12.9387 5.5275 15.952 9.26855 15.952V15.752ZM2.67188 9.19434H2.87188C2.87188 5.67396 5.74526 2.83672 9.26855 2.83672V2.63672V2.43672C5.52746 2.43672 2.47187 5.44995 2.47187 9.19434H2.67188ZM9.26855 2.63672H9.06855V5.63672H9.26855H9.46855V2.63672H9.26855Z" fill="black"/>
<path d="M30.3467 5.63672C28.3497 5.63672 26.75 7.24039 26.75 9.19434C26.7501 11.1482 28.3497 12.752 30.3467 12.752V15.752C26.7145 15.752 23.7501 12.8267 23.75 9.19434C23.75 5.56195 26.7145 2.63672 30.3467 2.63672V5.63672Z" fill="#F1F5F8"/>
<path d="M30.3467 5.63672V5.83672H30.5467V5.63672H30.3467ZM26.75 9.19434L26.55 9.19434L26.55 9.19434L26.75 9.19434ZM30.3467 12.752H30.5467V12.552H30.3467V12.752ZM30.3467 15.752V15.952H30.5467V15.752H30.3467ZM23.75 9.19434L23.55 9.19434L23.55 9.19434L23.75 9.19434ZM30.3467 2.63672H30.5467V2.43672H30.3467V2.63672ZM30.3467 5.63672V5.43672C28.2405 5.43672 26.55 7.12865 26.55 9.19434H26.75H26.95C26.95 7.35212 28.4589 5.83672 30.3467 5.83672V5.63672ZM26.75 9.19434L26.55 9.19434C26.5501 11.2599 28.2405 12.952 30.3467 12.952V12.752V12.552C28.4589 12.552 26.9501 11.0365 26.95 9.19433L26.75 9.19434ZM30.3467 12.752H30.1467V15.752H30.3467H30.5467V12.752H30.3467ZM30.3467 15.752V15.552C26.8234 15.552 23.9501 12.7147 23.95 9.19433L23.75 9.19434L23.55 9.19434C23.5501 12.9387 26.6056 15.952 30.3467 15.952V15.752ZM23.75 9.19434H23.95C23.95 5.67396 26.8234 2.83672 30.3467 2.83672V2.63672V2.43672C26.6056 2.43672 23.55 5.44995 23.55 9.19434H23.75ZM30.3467 2.63672H30.1467V5.63672H30.3467H30.5467V2.63672H30.3467Z" fill="black"/>
<path d="M9.26855 27.0156C7.27155 27.0156 5.67188 28.6193 5.67188 30.5732C5.67195 32.5271 7.2716 34.1309 9.26855 34.1309V37.1309C5.63641 37.1309 2.67195 34.2056 2.67188 30.5732C2.67188 26.9409 5.63636 24.0156 9.26855 24.0156V27.0156Z" fill="#F1F5F8"/>
<path d="M9.26855 27.0156V27.2156H9.46855V27.0156H9.26855ZM5.67188 30.5732L5.47187 30.5732L5.47187 30.5733L5.67188 30.5732ZM9.26855 34.1309H9.46855V33.9309H9.26855V34.1309ZM9.26855 37.1309V37.3309H9.46855V37.1309H9.26855ZM2.67188 30.5732L2.47187 30.5732L2.47187 30.5732L2.67188 30.5732ZM9.26855 24.0156H9.46855V23.8156H9.26855V24.0156ZM9.26855 27.0156V26.8156C7.16238 26.8156 5.47187 28.5076 5.47187 30.5732H5.67188H5.87188C5.87188 28.731 7.38073 27.2156 9.26855 27.2156V27.0156ZM5.67188 30.5732L5.47187 30.5733C5.47196 32.6389 7.16242 34.3309 9.26855 34.3309V34.1309V33.9309C7.38079 33.9309 5.87195 32.4154 5.87188 30.5732L5.67188 30.5732ZM9.26855 34.1309H9.06855V37.1309H9.26855H9.46855V34.1309H9.26855ZM9.26855 37.1309V36.9309C5.74531 36.9309 2.87195 34.0936 2.87188 30.5732L2.67188 30.5732L2.47187 30.5732C2.47196 34.3176 5.5275 37.3309 9.26855 37.3309V37.1309ZM2.67188 30.5732H2.87188C2.87188 27.0529 5.74526 24.2156 9.26855 24.2156V24.0156V23.8156C5.52746 23.8156 2.47187 26.8289 2.47187 30.5732H2.67188ZM9.26855 24.0156H9.06855V27.0156H9.26855H9.46855V24.0156H9.26855Z" fill="black"/>
<defs>
<linearGradient id="paint0_linear_648_252" x1="30.7112" y1="21.5625" x2="30.7112" y2="39.9996" gradientUnits="userSpaceOnUse">
<stop stop-color="#4614E8"/>
<stop offset="1" stop-color="#BCA7FF"/>
</linearGradient>
</defs>
</svg>
