<svg width="36" height="36" viewBox="0 0 36 36" fill="none" xmlns="http://www.w3.org/2000/svg">
<rect x="0.5" y="0.5" width="35" height="35" rx="9.5" stroke="#CFDAE7"/>
<path d="M21.5823 9H19.7074C18.2729 9 17.2426 9.3405 16.6164 10.0213C15.99 10.7022 15.6771 11.7052 15.6771 13.0304V14.2937C15.6771 14.6275 15.4065 14.8981 15.0727 14.8981H14.4247C14.0909 14.8981 13.8203 15.1687 13.8203 15.5025V17.3956C13.8203 17.7294 14.0909 18 14.4247 18H15.0727C15.4065 18 15.6771 18.2706 15.6771 18.6044V26.3955C15.6771 26.7294 15.9477 27 16.2815 27H18.7971C19.1309 27 19.4015 26.7294 19.4015 26.3955V18.6044C19.4015 18.2706 19.6721 18 20.0059 18H21.2764C21.6103 18 21.9093 17.7309 21.9443 17.399L22.145 15.4991C22.18 15.1671 21.9379 14.8981 21.604 14.8981H20.0057C19.6719 14.8981 19.4013 14.6275 19.4013 14.2937V13.3472C19.4013 13.1143 19.4122 12.934 19.4341 12.8064C19.4559 12.6791 19.505 12.5536 19.5816 12.4296C19.658 12.306 19.7819 12.2203 19.9529 12.173C20.1239 12.1256 20.3516 12.1019 20.6355 12.1019H21.582C21.9159 12.1019 22.1864 11.8313 22.1864 11.4974V9.60442C22.1867 9.27057 21.9161 9 21.5823 9Z" fill="#273895"/>
</svg>
