<svg width="36" height="36" viewBox="0 0 36 36" fill="none" xmlns="http://www.w3.org/2000/svg">
<rect x="0.5" y="0.5" width="35" height="35" rx="9.5" stroke="#CFDAE7"/>
<path d="M9.3552 23.6951C11.0217 24.7526 12.9612 25.3113 14.9637 25.3113C17.8962 25.3113 20.5835 24.1848 22.5312 22.1396C24.395 20.1821 25.4202 17.5518 25.3692 14.8826C26.0757 14.2781 26.9067 13.1238 26.9067 11.9988C26.9067 11.5676 26.4387 11.2938 26.0592 11.5136C25.3955 11.9036 24.7902 12.0056 24.1677 11.8308C22.8965 10.5918 21.0042 10.3308 19.4097 11.1903C18.0162 11.9403 17.2415 13.3128 17.3112 14.8128C14.957 14.5256 12.782 13.3451 11.2655 11.5106C11.0165 11.2113 10.544 11.2466 10.346 11.5856C9.61545 12.8366 9.62295 14.2863 10.2582 15.4571C9.95595 15.5103 9.7692 15.7646 9.7692 16.0398C9.7692 17.2166 10.2987 18.2981 11.1515 19.0361C10.9925 19.1891 10.94 19.4163 11.0075 19.6188C11.3825 20.7453 12.2315 21.6258 13.2927 22.0668C12.1385 22.6181 10.862 22.8018 9.7257 22.6623C9.1377 22.5828 8.84745 23.3733 9.3552 23.6951ZM15.1175 22.2596C15.5382 21.9363 15.3147 21.2628 14.7867 21.2516C13.8567 21.2321 13.01 20.7738 12.4827 20.0531C12.737 20.0366 13.0002 19.9976 13.2507 19.9301C13.8215 19.7756 13.7945 18.9521 13.2147 18.8358C12.1625 18.6243 11.3367 17.8578 11.027 16.8708C11.3097 16.9406 11.5977 16.9796 11.885 16.9848C12.4542 16.9878 12.6695 16.2581 12.2052 15.9528C11.159 15.2636 10.7127 14.0463 11.0082 12.9018C12.8352 14.7528 15.314 15.8681 17.936 15.9941C18.3117 16.0173 18.5937 15.6641 18.5112 15.3063C18.155 13.7621 19.0175 12.6798 19.9437 12.1811C20.8602 11.6861 22.3317 11.5316 23.4597 12.7151C23.795 13.0683 24.926 13.0818 25.5012 12.9476C25.2432 13.4336 24.8465 13.8948 24.4752 14.1543C24.317 14.2653 24.2262 14.4498 24.236 14.6426C24.3567 17.1063 23.4387 19.5558 21.7175 21.3626C19.9835 23.1828 17.5857 24.1856 14.9645 24.1856C13.922 24.1856 12.8997 24.0161 11.9337 23.6891C13.0887 23.4656 14.186 22.9766 15.1175 22.2596Z" fill="#273895"/>
<path d="M15.1175 22.2596C15.5382 21.9363 15.3147 21.2628 14.7867 21.2516C13.8567 21.2321 13.01 20.7738 12.4827 20.0531C12.737 20.0366 13.0002 19.9976 13.2507 19.9301C13.8215 19.7756 13.7945 18.9521 13.2147 18.8358C12.1625 18.6243 11.3367 17.8578 11.027 16.8708C11.3097 16.9406 11.5977 16.9796 11.885 16.9848C12.4542 16.9878 12.6695 16.2581 12.2052 15.9528C11.159 15.2636 10.7127 14.0463 11.0082 12.9018C12.8352 14.7528 15.314 15.8681 17.936 15.9941C18.3117 16.0173 18.5937 15.6641 18.5112 15.3063C18.155 13.7621 19.0175 12.6798 19.9437 12.1811C20.8602 11.6861 22.3317 11.5316 23.4597 12.7151C23.795 13.0683 24.926 13.0818 25.5012 12.9476C25.2432 13.4336 24.8465 13.8948 24.4752 14.1543C24.317 14.2653 24.2262 14.4498 24.236 14.6426C24.3567 17.1063 23.4387 19.5558 21.7175 21.3626C19.9835 23.1828 17.5857 24.1856 14.9645 24.1856C13.922 24.1856 12.8997 24.0161 11.9337 23.6891C13.0887 23.4656 14.186 22.9766 15.1175 22.2596Z" fill="#273895"/>
</svg>
